<svg width="30" height="29" viewBox="0 0 30 29" fill="none" xmlns="http://www.w3.org/2000/svg">
<path d="M14.0625 24.4688C14.0625 24.7091 13.9637 24.9396 13.7879 25.1096C13.6121 25.2795 13.3736 25.375 13.125 25.375H5.625C5.37636 25.375 5.1379 25.2795 4.96209 25.1096C4.78627 24.9396 4.6875 24.7091 4.6875 24.4688V4.53125C4.6875 4.2909 4.78627 4.06039 4.96209 3.89043C5.1379 3.72048 5.37636 3.625 5.625 3.625H13.125C13.3736 3.625 13.6121 3.72048 13.7879 3.89043C13.9637 4.06039 14.0625 4.2909 14.0625 4.53125C14.0625 4.7716 13.9637 5.00211 13.7879 5.17207C13.6121 5.34202 13.3736 5.4375 13.125 5.4375H6.5625V23.5625H13.125C13.3736 23.5625 13.6121 23.658 13.7879 23.8279C13.9637 23.9979 14.0625 24.2284 14.0625 24.4688ZM26.9133 13.8588L22.2258 9.32758C22.0499 9.15753 21.8113 9.062 21.5625 9.062C21.3137 9.062 21.0751 9.15753 20.8992 9.32758C20.7233 9.49763 20.6245 9.72826 20.6245 9.96875C20.6245 10.2092 20.7233 10.4399 20.8992 10.6099L23.9871 13.5938H13.125C12.8764 13.5938 12.6379 13.6892 12.4621 13.8592C12.2863 14.0291 12.1875 14.2596 12.1875 14.5C12.1875 14.7404 12.2863 14.9709 12.4621 15.1408C12.6379 15.3108 12.8764 15.4062 13.125 15.4062H23.9871L20.8992 18.3901C20.7233 18.5601 20.6245 18.7908 20.6245 19.0312C20.6245 19.2717 20.7233 19.5024 20.8992 19.6724C21.0751 19.8425 21.3137 19.938 21.5625 19.938C21.8113 19.938 22.0499 19.8425 22.2258 19.6724L26.9133 15.1412C27.0004 15.057 27.0696 14.9571 27.1168 14.847C27.164 14.737 27.1882 14.6191 27.1882 14.5C27.1882 14.3809 27.164 14.263 27.1168 14.153C27.0696 14.0429 27.0004 13.943 26.9133 13.8588Z" fill="white"/>
</svg>
